<svg width="60" height="60" viewBox="0 0 60 60" fill="none" xmlns="http://www.w3.org/2000/svg">
<circle cx="30" cy="30" r="30" fill="#207FF1"/>
<path d="M26.0028 30.5723C26.9441 32.5161 28.5158 34.0838 30.462 35.0201C30.6056 35.088 30.7644 35.1175 30.9227 35.1054C31.0811 35.0934 31.2336 35.0403 31.3653 34.9515L34.2238 33.042C34.3501 32.9563 34.496 32.9041 34.648 32.8901C34.7999 32.8761 34.9529 32.9008 35.0927 32.962L40.4438 35.2602C40.6267 35.3363 40.7795 35.4704 40.8787 35.6419C40.9778 35.8134 41.0179 36.0127 40.9926 36.2092C40.823 37.5329 40.1769 38.7495 39.1752 39.6313C38.1734 40.5131 36.8847 40.9997 35.5501 41C31.426 41 27.4707 39.3617 24.5545 36.4455C21.6383 33.5293 20 29.574 20 25.4499C20.0003 24.1153 20.4869 22.8266 21.3687 21.8248C22.2505 20.8231 23.4671 20.177 24.7908 20.0074C24.9873 19.9821 25.1866 20.0222 25.3581 20.1213C25.5296 20.2205 25.6637 20.3733 25.7398 20.5562L28.038 25.9187C28.0978 26.0563 28.1228 26.2065 28.1108 26.356C28.0989 26.5056 28.0503 26.6499 27.9694 26.7762L26.06 29.6804C25.975 29.8118 25.9251 29.9628 25.9151 30.1189C25.905 30.275 25.9353 30.4312 26.0028 30.5723V30.5723Z" stroke="white" stroke-width="2" stroke-linecap="round" stroke-linejoin="round"/>
</svg>
